<svg width="16" height="16" viewBox="0 0 16 16" fill="none" xmlns="http://www.w3.org/2000/svg">
<g id="lets-icons:insta">
<g id="Group">
<path id="Vector" d="M2 7.33333C2 4.81933 2 3.562 2.78133 2.78133C3.56267 2.00067 4.81933 2 7.33333 2H8.66667C11.1807 2 12.438 2 13.2187 2.78133C13.9993 3.56267 14 4.81933 14 7.33333V8.66667C14 11.1807 14 12.438 13.2187 13.2187C12.4373 13.9993 11.1807 14 8.66667 14H7.33333C4.81933 14 3.562 14 2.78133 13.2187C2.00067 12.4373 2 11.1807 2 8.66667V7.33333Z" stroke="white" stroke-width="1.5"/>
<path id="Vector_2" d="M11 6C11.5523 6 12 5.55228 12 5C12 4.44772 11.5523 4 11 4C10.4477 4 10 4.44772 10 5C10 5.55228 10.4477 6 11 6Z" fill="white"/>
<path id="Vector_3" d="M8 10C9.10457 10 10 9.10457 10 8C10 6.89543 9.10457 6 8 6C6.89543 6 6 6.89543 6 8C6 9.10457 6.89543 10 8 10Z" stroke="white" stroke-width="1.5"/>
</g>
</g>
</svg>
