<svg width="55" height="44" viewBox="0 0 55 44" fill="none" xmlns="http://www.w3.org/2000/svg">
<g id="fa6-solid:users" clip-path="url(#clip0_122_63770)">
<path id="Vector" d="M12.375 0C14.1984 0 15.947 0.724328 17.2364 2.01364C18.5257 3.30295 19.25 5.05164 19.25 6.875C19.25 8.69836 18.5257 10.447 17.2364 11.7364C15.947 13.0257 14.1984 13.75 12.375 13.75C10.5516 13.75 8.80295 13.0257 7.51364 11.7364C6.22433 10.447 5.5 8.69836 5.5 6.875C5.5 5.05164 6.22433 3.30295 7.51364 2.01364C8.80295 0.724328 10.5516 0 12.375 0ZM44 0C45.8234 0 47.572 0.724328 48.8614 2.01364C50.1507 3.30295 50.875 5.05164 50.875 6.875C50.875 8.69836 50.1507 10.447 48.8614 11.7364C47.572 13.0257 45.8234 13.75 44 13.75C42.1766 13.75 40.428 13.0257 39.1386 11.7364C37.8493 10.447 37.125 8.69836 37.125 6.875C37.125 5.05164 37.8493 3.30295 39.1386 2.01364C40.428 0.724328 42.1766 0 44 0ZM0 25.6695C0 20.6078 4.10781 16.5 9.16953 16.5H12.8391C14.2055 16.5 15.5031 16.8008 16.6719 17.3336C16.5602 17.9523 16.5086 18.5969 16.5086 19.25C16.5086 22.5328 17.9523 25.4805 20.2297 27.5H1.83047C0.825 27.5 0 26.675 0 25.6695ZM34.8305 27.5H34.7703C37.0563 25.4805 38.4914 22.5328 38.4914 19.25C38.4914 18.5969 38.4313 17.9609 38.3281 17.3336C39.4969 16.7922 40.7945 16.5 42.1609 16.5H45.8305C50.8922 16.5 55 20.6078 55 25.6695C55 26.6836 54.175 27.5 53.1695 27.5H34.8391H34.8305ZM19.25 19.25C19.25 17.062 20.1192 14.9635 21.6664 13.4164C23.2135 11.8692 25.312 11 27.5 11C29.688 11 31.7865 11.8692 33.3336 13.4164C34.8808 14.9635 35.75 17.062 35.75 19.25C35.75 21.438 34.8808 23.5365 33.3336 25.0836C31.7865 26.6308 29.688 27.5 27.5 27.5C25.312 27.5 23.2135 26.6308 21.6664 25.0836C20.1192 23.5365 19.25 21.438 19.25 19.25ZM11 41.7055C11 35.3805 16.1305 30.25 22.4555 30.25H32.5359C38.8695 30.25 44 35.3805 44 41.7055C44 42.9688 42.9773 44 41.7055 44H13.2859C12.0227 44 10.9914 42.9773 10.9914 41.7055H11Z" fill="white"/>
</g>
<defs>
<clipPath id="clip0_122_63770">
<rect width="55" height="44" fill="white"/>
</clipPath>
</defs>
</svg>
